<svg xmlns="http://www.w3.org/2000/svg" viewBox="0 0 32 32" width="32" height="32">
  <defs>
    <linearGradient id="cloudGrad" x1="0%" y1="0%" x2="100%" y2="100%">
      <stop offset="0%" style="stop-color:#0EA5E9;stop-opacity:1" />
      <stop offset="100%" style="stop-color:#0284C7;stop-opacity:1" />
    </linearGradient>
  </defs>
  <rect width="32" height="32" rx="8" fill="url(#cloudGrad)"/>
  <path d="M8 20c-1.1 0-2-.9-2-2 0-1.1.9-2 2-2 .2-1.7 1.6-3 3.4-3 1.3 0 2.4.7 3 1.8.4-.1.8-.2 1.2-.2 2.2 0 4 1.8 4 4s-1.8 4-4 4H8z" fill="white" opacity="0.9"/>
  <circle cx="20" cy="12" r="1.5" fill="white" opacity="0.7"/>
  <circle cx="24" cy="16" r="1" fill="white" opacity="0.6"/>
  <circle cx="22" cy="20" r="0.8" fill="white" opacity="0.5"/>
</svg>